<?xml version="1.0" encoding="utf-8"?>
<!-- Generator: Adobe Illustrator 29.0.0, SVG Export Plug-In . SVG Version: 9.03 Build 54978)  -->
<svg version="1.0" id="logo" xmlns="http://www.w3.org/2000/svg" xmlns:xlink="http://www.w3.org/1999/xlink" x="0px" y="0px"
	 viewBox="0 0 566.9 566.9" style="enable-background:new 0 0 566.9 566.9;" xml:space="preserve">
<style type="text/css">
	.st0{fill:#5865F2;}
	.st1{fill:#FFFFFF;}
</style>
<g>
	<path class="st0" d="M0,283.5C0,126.9,126.9,0,283.4,0C440,0,566.9,126.9,566.9,283.4S440.1,566.9,283.5,566.9c0,0,0,0,0,0
		C126.9,566.9,0,440.1,0,283.5C0,283.5,0,283.5,0,283.5z"/>
	<path class="st1" d="M410.3,167.5c-24-11.1-49.4-18.9-75.4-23.3c-3.3,5.8-7,13.6-9.7,19.8c-27.7-4.1-55.9-4.1-83.6,0
		c-3-6.8-6.3-13.4-9.9-19.8c-26.1,4.4-51.5,12.3-75.5,23.4c-47.6,71-60.5,140.2-54.1,208.5c27.9,20.8,59.2,36.6,92.5,46.7
		c7.5-10.2,14.1-20.9,19.8-32.2c-10.8-4-21.3-9-31.2-14.9c2.6-2,5.1-3.9,7.5-5.9c58.6,27.7,126.5,27.7,185.1,0c2.5,2,5.1,4,7.6,5.9
		c-10,5.9-20.4,10.9-31.3,15c5.7,11.2,12.3,22,19.8,32.1c33.3-10.1,64.6-25.9,92.5-46.7C472.3,297,451.7,228.3,410.3,167.5z
		 M222.7,334.1c-18,0-32.9-16.5-32.9-36.8c0-20.3,14.5-37,32.9-37s33.1,16.5,32.9,36.9C255.4,317.5,241.1,334.1,222.7,334.1z
		 M344.2,334.1c-18,0-32.9-16.5-32.9-36.8c0-20.3,14.5-37,32.9-37c18.4,0,33.1,16.5,32.9,36.9C376.8,317.5,362.5,334.1,344.2,334.1z
		"/>
</g>
</svg>
