<?xml version="1.0" encoding="UTF-8"?>
<svg id="svg60" xmlns="http://www.w3.org/2000/svg" version="1.1" xmlns:cc="http://creativecommons.org/ns#" xmlns:dc="http://purl.org/dc/elements/1.1/" xmlns:rdf="http://www.w3.org/1999/02/22-rdf-syntax-ns#" xmlns:svg="http://www.w3.org/2000/svg" viewBox="0 0 566.9 425.2">
  <!-- Generator: Adobe Illustrator 29.0.1, SVG Export Plug-In . SVG Version: 2.1.0 Build 192)  -->
  <defs>
    <style>
      .st0 {
        fill: #ea4335;
      }

      .st1 {
        fill: #fbbc04;
      }

      .st2 {
        fill: #4285f4;
      }

      .st3 {
        fill: #34a853;
      }

      .st4 {
        fill: #c5221f;
      }
    </style>
  </defs>
  <g id="g18">
    <path id="path8" class="st2" d="M38.7,425.2h90.2v-219L0,109.5v277c0,21.3,17.3,38.6,38.7,38.6Z"/>
    <path id="path10" class="st3" d="M438.1,425.2h90.2c21.3,0,38.7-17.3,38.7-38.7V109.5l-128.9,96.6v219Z"/>
    <path id="path12" class="st1" d="M438.1,38.7v167.5l128.8-96.6v-51.5C566.9,26,541,0,508.9,0s-24.7,4.1-34.8,11.6l-36.1,27Z"/>
    <path id="path14" class="st0" d="M128.9,206.1V38.7l154.6,116,154.6-116v167.5l-154.6,116-154.6-116Z"/>
    <path id="path16" class="st4" d="M0,58v51.5l128.8,96.6V38.7l-36.1-27.1C67.2-7.6,30.8-2.4,11.6,23.2,4.1,33.2,0,45.4,0,58Z"/>
  </g>
</svg>