<?xml version="1.0" encoding="UTF-8"?>
<svg id="logo" xmlns="http://www.w3.org/2000/svg" version="1.1" viewBox="0 0 566.9 566.9">
  <!-- Generator: Adobe Illustrator 29.0.0, SVG Export Plug-In . SVG Version: 2.1.0 Build 186)  -->
  <defs>
    <style>
      .st0 {
        fill: #064a8c;
      }

      .st0, .st1, .st2 {
        fill-rule: evenodd;
      }

      .st3 {
        fill-opacity: .5;
      }

      .st3, .st4 {
        fill: #0a2767;
      }

      .st5 {
        fill: #1490df;
      }

      .st1 {
        fill: #50d9ff;
      }

      .st6 {
        fill: #fff;
      }

      .st7 {
        fill: #28a8ea;
      }

      .st8 {
        fill: none;
      }

      .st9 {
        fill: #0364b8;
      }

      .st2, .st10 {
        fill: #0078d4;
      }

      .st11 {
        fill-opacity: 0;
      }

      .st12 {
        fill-opacity: 0;
      }

      .st13 {
        fill-opacity: .2;
      }
    </style>
  </defs>
  <path class="st9" d="M506.6,35.4H202c-13.6,0-24.9,11.2-24.9,24.9v28.3l171.7,53.1,182.6-53.1v-28.3c0-13.6-11.2-24.9-24.9-24.9Z"/>
  <path class="st4" d="M560.7,308.3c2.6-8.2,4.7-16.5,6.2-24.9,0-4.2-2.2-8.1-5.9-10.2h-.2c0-.1,0-.2,0-.2l-192-109.4c-.8-.5-1.7-1-2.6-1.5-7.4-3.7-16.2-3.7-23.6,0-.9.4-1.7.9-2.6,1.5l-192,109.4h0s-.2.2-.2.2c-3.6,2.1-5.9,6-5.9,10.2,1.5,8.4,3.6,16.7,6.2,24.9l203.6,148.9,209.2-148.9Z"/>
  <path class="st7" d="M425.2,88.6h-124l-35.8,53.1,35.8,53.1,124,106.3h106.3v-106.3l-106.3-106.3Z"/>
  <path class="st2" d="M177.2,88.6h124v106.3h-124v-106.3Z"/>
  <path class="st1" d="M425.2,88.6h106.3v106.3h-106.3v-106.3Z"/>
  <path class="st9" d="M425.2,301.2l-124-106.3h-124v106.3l124,106.3,191.9,31.3-67.9-137.6Z"/>
  <path class="st8" d="M177.7,88.6h353.8"/>
  <path class="st2" d="M301.2,194.9h124v106.3h-124v-106.3Z"/>
  <path class="st0" d="M177.2,301.2h124v106.3h-124v-106.3Z"/>
  <path class="st2" d="M425.2,301.2h106.3v106.3h-106.3v-106.3Z"/>
  <path class="st3" d="M357.7,446.7l-208.9-152.4,8.8-15.4s190.4,108.4,193.3,110c2.4,1,5.1.9,7.5-.2,2.7-1.5,193.7-110.4,193.7-110.4l8.8,15.4-203,152.9Z"/>
  <path class="st5" d="M561,293.7h-.2c0,.1,0,.2,0,.2l-192,109.4c-7.7,5-17.6,5.6-25.9,1.6l66.9,89.7,146.2,31.8h0c6.9-4.9,11-12.9,11-21.4v-221.4c0,4.2-2.3,8.1-5.9,10.2h0Z"/>
  <path class="st11" d="M566.9,504.9v-13.1l-176.9-100.8-21.3,12.2c-7.7,5-17.6,5.6-25.9,1.6l66.9,89.7,146.2,31.8h0c6.9-4.9,11-12.9,11-21.4h0Z"/>
  <path class="st12" d="M566,511.7l-193.9-110.4-3.5,2c-7.7,5-17.6,5.6-25.9,1.6l66.9,89.7,146.2,31.8h0c5-3.5,8.5-8.7,10.1-14.6h0Z"/>
  <path class="st7" d="M147.9,293.9v-.2h-.2l-.5-.4c-3.4-2.1-5.5-5.9-5.5-9.9v221.5c0,14.6,12,26.5,26.5,26.5h372.1c2.2,0,4.4-.3,6.6-.9,1.1-.2,2.2-.6,3.2-1.1.4,0,.7-.2,1.1-.4,1.4-.6,2.8-1.4,4.1-2.3l.7-.5-408-232.4Z"/>
  <path class="st12" d="M318.9,437V147.6c0-12.9-10.7-23.6-23.6-23.6h-117.6v132.1l-29.8,17h0s-.2.2-.2.2c-3.6,2.1-5.9,6-5.9,10.2v177.2h0c0,0,153.5,0,153.5,0,12.9,0,23.6-10.7,23.6-23.6Z"/>
  <path class="st13" d="M301.2,454.7V165.4c0-12.9-10.7-23.6-23.6-23.6h-99.8v114.4l-29.8,17h0s-.2.2-.2.2c-3.6,2.1-5.9,6-5.9,10.2v194.9h0c0,0,135.8,0,135.8,0,12.9,0,23.6-10.7,23.6-23.6ZM301.2,419.3v-253.9c0-12.9-10.7-23.6-23.6-23.6h-99.8v114.4l-29.8,17h0s-.2.2-.2.2c-3.6,2.1-5.9,6-5.9,10.2v159.5h0c0,0,135.8,0,135.8,0,12.9,0,23.6-10.7,23.6-23.6ZM283.4,419.3v-253.9c0-12.9-10.7-23.6-23.6-23.6h-82.1v114.4l-29.8,17h0s-.2.2-.2.2c-3.6,2.1-5.9,6-5.9,10.2v159.5h0c0,0,118.1,0,118.1,0,12.9,0,23.6-10.7,23.6-23.6Z"/>
  <path class="st10" d="M23.6,141.7h236.2c13,0,23.6,10.7,23.6,23.6v236.2c0,13-10.7,23.6-23.6,23.6H23.6c-13,0-23.6-10.7-23.6-23.6v-236.2c0-13,10.7-23.6,23.6-23.6Z"/>
  <path class="st6" d="M68.5,238.6c6.3-13.4,16.4-24.6,29.1-32.1,14.1-8,30.1-12.1,46.2-11.6,15-.3,29.8,3.5,42.8,11,12.2,7.3,22,17.9,28.3,30.7,6.8,14.1,10.2,29.5,9.9,45.2.3,16.3-3.2,32.5-10.2,47.2-6.4,13.2-16.5,24.3-29.1,31.8-13.5,7.7-28.8,11.7-44.4,11.3-15.3.4-30.4-3.5-43.7-11.1-12.3-7.3-22.3-18-28.7-30.8-6.9-13.9-10.3-29.2-10-44.6-.3-16.2,3.1-32.2,9.8-46.9h0ZM99.5,314c3.3,8.5,9,15.8,16.4,21.2,7.5,5.2,16.4,7.9,25.6,7.7,9.7.4,19.3-2.4,27.3-7.9,7.3-5.4,12.8-12.7,15.9-21.2,3.5-9.4,5.2-19.4,5.1-29.5.1-10.2-1.5-20.3-4.8-29.9-2.9-8.7-8.2-16.3-15.3-22-7.8-5.8-17.3-8.8-27.1-8.4-9.3-.2-18.5,2.5-26.2,7.8-7.5,5.4-13.3,12.8-16.7,21.3-7.6,19.6-7.6,41.3-.1,60.9h0Z"/>
  <path class="st8" d="M0,0h566.9v566.9H0V0Z"/>
</svg>