<?xml version="1.0" encoding="UTF-8"?>
<svg id="logo" xmlns="http://www.w3.org/2000/svg" version="1.1" xmlns:xlink="http://www.w3.org/1999/xlink" viewBox="0 0 566.9 566.9">
  <!-- Generator: Adobe Illustrator 29.0.0, SVG Export Plug-In . SVG Version: 2.1.0 Build 186)  -->
  <defs>
    <style>
      .st0 {
        fill: #a9c9dd;
      }

      .st1 {
        fill: url(#linear-gradient1);
      }

      .st2 {
        fill: #c8daea;
      }

      .st3 {
        fill: url(#linear-gradient);
      }
    </style>
    <linearGradient id="linear-gradient" x1="-1369" y1="287.8" x2="-1371.3" y2="293.1" gradientTransform="translate(85929.9 -17900.2) scale(62.5)" gradientUnits="userSpaceOnUse">
      <stop offset="0" stop-color="#37aee2"/>
      <stop offset="1" stop-color="#1e96c8"/>
    </linearGradient>
    <linearGradient id="linear-gradient1" x1="-582.3" y1="634.2" x2="-576.7" y2="643.2" gradientTransform="translate(6370.7 -6313.5) scale(10.4)" gradientUnits="userSpaceOnUse">
      <stop offset="0" stop-color="#eff7fc"/>
      <stop offset="1" stop-color="#fff"/>
    </linearGradient>
  </defs>
  <path id="path2995-1-0" class="st3" d="M566.9,283.5c0,156.6-126.9,283.5-283.5,283.5S0,440.1,0,283.5,126.9,0,283.5,0s283.5,126.9,283.5,283.5Z"/>
  <path id="path2993" class="st2" d="M231.5,413.4c-9.2,0-7.6-3.5-10.9-12.3l-26.9-88.8,167.2-104.4,19.6,5.2-16.3,44.4-132.8,155.9Z"/>
  <path id="path2989" class="st0" d="M231.5,413.4c7.1,0,10.2-3.3,14.2-7.1,6.1-5.9,85-82.7,85-82.7l-48.4-11.8-44.9,28.3-5.9,70.9v2.4Z"/>
  <path id="path2991" class="st1" d="M236.2,341.1l114.3,84.3c13,7.1,22.4,3.5,25.7-12l46.5-219.2c4.7-19.1-7.3-27.6-19.8-22l-273.1,105.4c-18.7,7.6-18.4,18-3.3,22.4l70.2,22,162.3-102.3c7.6-4.7,14.6-2.1,9,3.1l-131.8,118.3Z"/>
</svg>