<?xml version="1.0" encoding="UTF-8"?>
<svg id="logo" xmlns="http://www.w3.org/2000/svg" version="1.1" xmlns:xlink="http://www.w3.org/1999/xlink" viewBox="0 0 566.9 569.5">
  <!-- Generator: Adobe Illustrator 29.0.0, SVG Export Plug-In . SVG Version: 2.1.0 Build 186)  -->
  <defs>
    <style>
      .st0, .st1 {
        fill: #fff;
      }

      .st1 {
        fill-rule: evenodd;
      }

      .st2 {
        fill: url(#linear-gradient);
      }
    </style>
    <linearGradient id="linear-gradient" x1="-205.9" y1="446.5" x2="-205.9" y2="715.9" gradientTransform="translate(703.7 1470.8) scale(2 -2)" gradientUnits="userSpaceOnUse">
      <stop offset="0" stop-color="#20b038"/>
      <stop offset="1" stop-color="#60d66a"/>
    </linearGradient>
  </defs>
  <path class="st2" d="M9.8,559.6l38.7-141.2c-23.9-41.3-36.4-88.2-36.4-136.2C12.2,132.1,134.4,9.9,284.6,9.9c72.9,0,141.3,28.4,192.8,79.9,51.5,51.5,79.8,119.9,79.7,192.7,0,150.2-122.3,272.4-272.5,272.4s0,0,0,0h-.1c-45.6,0-90.4-11.5-130.2-33.2l-144.5,37.9h0Z"/>
  <path class="st1" d="M214.1,164.2c-5.3-11.7-10.8-12-15.9-12.2-4.1-.2-8.8-.2-13.5-.2s-12.3,1.8-18.8,8.8c-6.5,7.1-24.7,24.1-24.7,58.8s25.3,68.2,28.8,72.9c3.5,4.7,48.8,78.2,120.5,106.5,59.6,23.5,71.7,18.8,84.6,17.6s41.7-17.1,47.6-33.5c5.9-16.5,5.9-30.6,4.1-33.5-1.8-2.9-6.5-4.7-13.5-8.2-7.1-3.5-41.7-20.6-48.2-22.9s-11.2-3.5-15.9,3.5c-4.7,7.1-18.2,22.9-22.3,27.6-4.1,4.7-8.2,5.3-15.3,1.8-7.1-3.5-29.8-11-56.7-35-21-18.7-35.1-41.8-39.2-48.8-4.1-7.1-.4-10.9,3.1-14.4,3.2-3.2,7.1-8.2,10.6-12.4,3.5-4.1,4.7-7.1,7-11.8,2.4-4.7,1.2-8.8-.6-12.4s-15.5-38.4-21.7-52.4h0Z"/>
  <path class="st0" d="M484.3,82.8C431,29.4,360.2,0,284.7,0,129.1,0,2.4,126.6,2.4,282.2c0,49.7,13,98.3,37.7,141.1L0,569.5l149.6-39.2c41.2,22.5,87.6,34.3,134.9,34.4h.1c155.6,0,282.2-126.6,282.3-282.2,0-75.4-29.3-146.3-82.6-199.6h0ZM284.7,516.9h0c-42.1,0-83.4-11.3-119.4-32.7l-8.6-5.1-88.8,23.3,23.7-86.5-5.6-8.9c-23.5-37.3-35.9-80.5-35.9-124.8,0-129.3,105.3-234.5,234.7-234.5,62.7,0,121.6,24.5,165.9,68.8,44.3,44.3,68.7,103.3,68.7,165.9,0,129.3-105.3,234.5-234.6,234.5Z"/>
</svg>